# xmcd CD database file
#
# Track frame offsets:
#	150
#	14970
#	35047
#	56831
#	69926
#	85437
#	94851
#	110668
#	126706
#	153626
#
# Disc length: 2238 seconds
#
# Revision: 0
# Processed by: cddbd v1.5.2PL0 Copyright (c) Steve Scherf et al.
# Submitted via: CDex 1.75
#
DISCID=9908bc0a
DTITLE=The Alltunators - Nation of Three
DYEAR=2009
DGENRE=Country
TTITLE0=Karaoke Life
TTITLE1=John Riley
TTITLE2=Elis Presley Blues
TTITLE3=The Kind
TTITLE4=Conundrum
TTITLE5=Allons a Lafayette
TTITLE6=Ablene
TTITLE7=Roll My Blues
TTITLE8=Falling into Flame
TTITLE9=Saterday Night In Jail
EXTD=YEAR: 2009
EXTT0=
EXTT1=
EXTT2=
EXTT3=
EXTT4=
EXTT5=
EXTT6=
EXTT7=
EXTT8=
EXTT9=
PLAYORDER=
